{"title":"Stainless Night","uid":7225387,"size":4205477888,"categoryP":"porn","categoryS":"other","magnet":"?xt=urn:btih:0820f7267b5b6dc8b19498cd046633fcf3bdc725&amp;dn=Stainless+Night&amp;tr=udp%3A%2F%2Ftracker.openbittorrent.com%3A80&amp;tr=udp%3A%2F%2Fopen.demonii.com%3A1337&amp;tr=udp%3A%2F%2Ftracker.coppersurfer.tk%3A6969&amp;tr=udp%3A%2F%2Fexodus.desync.com%3A6969","seeders":1,"leechers":0,"uploader":"CallmeXFX","files":1,"time":1335655021,"description":"Stainless Night\n &lt;a href=&quot;\nhttp://bayimg.com/KaOmOaaDe&quot; rel=&quot;nofollow&quot; target=&quot;_NEW&quot;&gt;\nhttp://bayimg.com/KaOmOaaDe&lt;/a&gt;\n\nGeneral\nComplete name : H:VIDEO_TSVTS_01_1.VOB\nFormat : MPEG-PS\nFile size : 1 023 MiB\nDuration : 16mn 14s\nOverall bit rate : 8 802 Kbps\nVideo\nID : 224 (0xE0)\nFormat : MPEG Video\nFormat version : Version 2\nFormat profile : Main@Main\nFormat settings, BVOP : Yes\nFormat settings, Matrix : Default\nFormat settings, GOP : M=3, N=13\nDuration : 16mn 14s\nBit rate : 8 000 Kbps\nWidth : 720 pixels\nHeight : 480 pixels\nDisplay aspect ratio : 4:3\nFrame rate : 29.970 fps\nStandard : NTSC\nColor space : YUV\nChroma subsampling : 4:2:0\nBit depth : 8 bits\nScan type : Interlaced\nScan order : Top Field First\nCompression mode : Lossy\nBits/(Pixel*Frame) : 0.772\nStream size : 928 MiB (91%)\nColor primaries : SMPTE 170M\nTransfer characteristics : SMPTE 170M\nMatrix coefficients : SMPTE 170M\nAudio #1\nID : 189 (0xBD)-128 (0x80)\nFormat : AC-3\nFormat/Info : Audio Coding 3\nMode extension : CM (complete main)\nMuxing mode : DVD-Video\nDuration : 16mn 14s\nBit rate mode : Constant\nBit rate : 192 Kbps\nChannel(s) : 2 channels\nChannel positions : Front: L R\nSampling rate : 48.0 KHz\nBit depth : 16 bits\nCompression mode : Lossy\nStream size : 22.3 MiB (2%)\nAudio #2\nID : 189 (0xBD)-129 (0x81)\nFormat : AC-3\nFormat/Info : Audio Coding 3\nMode extension : CM (complete main)\nMuxing mode : DVD-Video\nDuration : 16mn 14s\nBit rate mode : Constant\nBit rate : 448 Kbps\nChannel(s) : 2 channels\nChannel positions : Front: L R\nSampling rate : 48.0 KHz\nBit depth : 16 bits\nCompression mode : Lossy\nStream size : 52.0 MiB (5%)\nText\nID : 189 (0xBD)-32 (0x20)\nFormat : RLE\nFormat/Info : Run-length encoding\nMuxing mode : DVD-Video","torrent":{"xt":"urn:btih:0820f7267b5b6dc8b19498cd046633fcf3bdc725","amp;dn":"Stainless+Night","amp;tr":["udp%3A%2F%2Ftracker.openbittorrent.com%3A80","udp%3A%2F%2Fopen.demonii.com%3A1337","udp%3A%2F%2Ftracker.coppersurfer.tk%3A6969","udp%3A%2F%2Fexodus.desync.com%3A6969"],"infoHash":"0820f7267b5b6dc8b19498cd046633fcf3bdc725","infoHashBuffer":{"type":"Buffer","data":[8,32,247,38,123,91,109,200,177,148,152,205,4,102,51,252,243,189,199,37]},"announce":[],"urlList":[]}}